# Blender v3.2.1 OBJ File: 'stairs.blend'
# www.blender.org
mtllib stairs.mtl
o Cube.001
v 0.833249 0.272962 -2.854207
v 0.833249 -0.002720 -2.854207
v 0.833249 0.272962 3.004307
v 0.833249 -0.002720 3.004307
v 0.383860 0.272962 -2.854207
v 0.383860 -0.002720 -2.854207
v 0.383860 0.272962 3.004307
v 0.383860 -0.002720 3.004307
v -0.032054 0.272962 -2.854207
v -0.032054 -0.002720 -2.854207
v -0.032054 0.272962 3.004307
v -0.032054 -0.002720 3.004307
v 0.383860 0.531729 -2.854207
v 0.383860 0.531729 3.004307
v -0.032054 0.531729 -2.854207
v -0.032054 0.531729 3.004307
v -0.498910 0.272962 -2.854207
v -0.498910 -0.002720 -2.854207
v -0.498910 0.272962 3.004307
v -0.498910 -0.002720 3.004307
v -0.498910 0.531729 -2.854207
v -0.498910 0.531729 3.004307
v -0.032054 0.829622 -2.854207
v -0.032054 0.829622 3.004307
v -0.498910 0.829622 -2.854207
v -0.498910 0.829622 3.004307
v -2.797199 0.272962 -2.854207
v -2.797199 -0.002720 -2.854207
v -2.797199 0.272962 3.004307
v -2.797199 -0.002720 3.004307
v -2.797199 0.531729 -2.854207
v -2.797199 0.531729 3.004307
v -2.797199 0.829622 -2.854207
v -2.797199 0.829622 3.004307
v -0.498910 1.087232 -2.854207
v -0.498910 1.087232 3.004307
v -2.797199 1.087232 -2.854207
v -2.797199 1.087232 3.004307
vt 0.625000 0.500000
vt 0.875000 0.500000
vt 0.875000 0.750000
vt 0.625000 0.750000
vt 0.375000 0.750000
vt 0.625000 1.000000
vt 0.375000 1.000000
vt 0.625000 0.250000
vt 0.375000 0.250000
vt 0.375000 0.250000
vt 0.625000 0.250000
vt 0.125000 0.500000
vt 0.375000 0.500000
vt 0.125000 0.750000
vt 0.125000 0.500000
vt 0.125000 0.750000
vt 0.125000 0.750000
vt 0.125000 0.500000
vt 0.625000 1.000000
vt 0.375000 1.000000
vt 0.625000 0.250000
vt 0.625000 0.250000
vt 0.875000 0.750000
vt 0.875000 0.500000
vt 0.875000 0.500000
vt 0.875000 0.750000
vt 0.375000 0.250000
vt 0.625000 0.250000
vt 0.625000 1.000000
vt 0.625000 1.000000
vt 0.625000 1.000000
vt 0.625000 1.000000
vt 0.625000 1.000000
vt 0.625000 1.000000
vt 0.625000 1.000000
vt 0.625000 1.000000
vt 0.625000 1.000000
vt 0.625000 0.250000
vt 0.375000 1.000000
vt 0.875000 0.750000
vt 0.875000 0.500000
vt 0.875000 0.500000
vt 0.875000 0.750000
vt 0.625000 0.250000
vt 0.625000 0.250000
vt 0.625000 0.250000
vt 0.625000 0.250000
vt 0.375000 0.000000
vt 0.625000 0.000000
vt 0.625000 0.250000
vt 0.375000 0.250000
vt 0.625000 0.000000
vt 0.625000 0.000000
vt 0.625000 1.000000
vt 0.625000 1.000000
vt 0.125000 0.750000
vt 0.125000 0.500000
vt 0.375000 1.000000
vt 0.875000 0.750000
vt 0.875000 0.500000
vt 0.875000 0.500000
vt 0.875000 0.750000
vt 0.625000 0.000000
vt 0.625000 0.250000
vt 0.625000 0.250000
vn 0.0000 1.0000 0.0000
vn 0.0000 0.0000 1.0000
vn 0.0000 0.0000 -1.0000
vn 0.0000 -1.0000 0.0000
vn 1.0000 0.0000 0.0000
vn -1.0000 0.0000 0.0000
usemtl stairs
s off
f 1/1/1 5/2/1 7/3/1 3/4/1
f 4/5/2 3/4/2 7/6/2 8/7/2
f 5/8/3 6/9/3 10/10/3 9/11/3
f 6/12/4 2/13/4 4/5/4 8/14/4
f 2/13/5 1/1/5 3/4/5 4/5/5
f 6/9/3 5/8/3 1/1/3 2/13/3
f 10/15/4 12/16/4 20/17/4 18/18/4
f 8/7/2 7/6/2 11/19/2 12/20/2
f 6/12/4 8/14/4 12/16/4 10/15/4
f 5/8/3 9/11/3 15/21/3 13/22/3
f 14/23/1 13/24/1 15/25/1 16/26/1
f 9/11/3 10/10/3 18/27/3 17/28/3
f 7/3/5 5/2/5 13/24/5 14/23/5
f 11/19/2 7/6/2 14/29/2 16/30/2
f 19/31/2 22/32/2 32/33/2 29/34/2
f 22/32/2 26/35/2 34/36/2 32/33/2
f 22/32/2 16/30/2 24/37/2 26/35/2
f 11/19/2 16/30/2 22/32/2 19/31/2
f 15/21/3 9/11/3 17/28/3 21/38/3
f 12/20/2 11/19/2 19/31/2 20/39/2
f 24/40/1 23/41/1 25/42/1 26/43/1
f 16/26/5 15/25/5 23/41/5 24/40/5
f 25/44/3 21/38/3 31/45/3 33/46/3
f 15/21/3 21/38/3 25/44/3 23/47/3
f 30/48/6 29/49/6 27/50/6 28/51/6
f 27/50/6 29/49/6 32/52/6 31/45/6
f 31/45/6 32/52/6 34/53/6 33/46/6
f 34/36/2 26/35/2 36/54/2 38/55/2
f 17/28/3 18/27/3 28/51/3 27/50/3
f 18/18/4 20/17/4 30/56/4 28/57/4
f 21/38/3 17/28/3 27/50/3 31/45/3
f 20/39/2 19/31/2 29/34/2 30/58/2
f 36/59/1 35/60/1 37/61/1 38/62/1
f 26/43/5 25/42/5 35/60/5 36/59/5
f 33/46/6 34/53/6 38/63/6 37/64/6
f 25/44/3 33/46/3 37/64/3 35/65/3
