# Blender v3.2.1 OBJ File: 'escudo 1.blend'
# www.blender.org
mtllib woodshield.mtl
o round-wood-shield_Circle.005
v 0.000000 0.287362 0.000000
v -0.074375 0.277570 0.000000
v -0.143681 0.248862 0.000000
v -0.203195 0.203195 0.000000
v -0.248862 0.143681 0.000000
v -0.277570 0.074375 0.000000
v -0.287362 0.000000 0.000000
v -0.277570 -0.074375 -0.000000
v -0.248862 -0.143681 -0.000000
v -0.203195 -0.203195 -0.000000
v -0.143681 -0.248862 -0.000000
v -0.074375 -0.277570 -0.000000
v -0.000000 -0.287362 -0.000000
v 0.074375 -0.277570 -0.000000
v 0.143681 -0.248862 -0.000000
v 0.203195 -0.203195 -0.000000
v 0.248862 -0.143681 -0.000000
v 0.277570 -0.074375 -0.000000
v 0.287362 -0.000000 -0.000000
v 0.277570 0.074374 0.000000
v 0.248862 0.143681 0.000000
v 0.203195 0.203195 0.000000
v 0.143681 0.248862 0.000000
v 0.074375 0.277570 0.000000
v -0.000000 0.280377 0.031070
v -0.072567 0.270824 0.031070
v -0.140189 0.242814 0.031070
v -0.198257 0.198257 0.031070
v -0.242814 0.140189 0.031070
v -0.270824 0.072567 0.031070
v -0.280377 0.000000 0.031070
v -0.270824 -0.072567 0.031070
v -0.242814 -0.140189 0.031070
v -0.198257 -0.198257 0.031070
v -0.140189 -0.242814 0.031070
v -0.072567 -0.270824 0.031070
v -0.000000 -0.280377 0.031070
v 0.072567 -0.270824 0.031070
v 0.140189 -0.242814 0.031070
v 0.198257 -0.198257 0.031070
v 0.242814 -0.140189 0.031070
v 0.270824 -0.072567 0.031070
v 0.280377 -0.000000 0.031070
v 0.270824 0.072567 0.031070
v 0.242814 0.140189 0.031070
v 0.198257 0.198257 0.031070
v 0.140189 0.242814 0.031070
v 0.072567 0.270824 0.031070
v -0.000000 0.226972 0.033145
v -0.058745 0.219238 0.033145
v -0.113486 0.196563 0.033145
v -0.160493 0.160493 0.033145
v -0.196564 0.113486 0.033145
v -0.219238 0.058745 0.033145
v -0.226972 0.000000 0.033145
v -0.219238 -0.058745 0.033145
v -0.196564 -0.113486 0.033145
v -0.160493 -0.160493 0.033145
v -0.113486 -0.196563 0.033145
v -0.058745 -0.219238 0.033145
v -0.000000 -0.226972 0.033145
v 0.058745 -0.219238 0.033145
v 0.113486 -0.196564 0.033145
v 0.160493 -0.160494 0.033145
v 0.196563 -0.113486 0.033145
v 0.219238 -0.058745 0.033145
v 0.226972 -0.000000 0.033145
v 0.219238 0.058745 0.033145
v 0.196564 0.113486 0.033145
v 0.160494 0.160493 0.033145
v 0.113486 0.196563 0.033145
v 0.058745 0.219238 0.033145
v -0.000000 0.226972 0.006258
v -0.058745 0.219238 0.006258
v -0.113486 0.196563 0.006258
v -0.160493 0.160493 0.006258
v -0.196564 0.113486 0.006258
v -0.219238 0.058745 0.006258
v -0.226972 0.000000 0.006257
v -0.219238 -0.058745 0.006257
v -0.196564 -0.113486 0.006257
v -0.160493 -0.160493 0.006257
v -0.113486 -0.196563 0.006257
v -0.058745 -0.219238 0.006257
v -0.000000 -0.226972 0.006257
v 0.058745 -0.219238 0.006257
v 0.113486 -0.196564 0.006257
v 0.160493 -0.160494 0.006257
v 0.196563 -0.113486 0.006257
v 0.219238 -0.058745 0.006257
v 0.226972 -0.000000 0.006257
v 0.219238 0.058745 0.006258
v 0.196564 0.113486 0.006258
v 0.160494 0.160493 0.006258
v 0.113486 0.196563 0.006258
v 0.058745 0.219238 0.006258
v -0.000000 0.285671 -0.010578
v -0.073937 0.275937 -0.010578
v -0.142836 0.247399 -0.010578
v -0.202000 0.202000 -0.010578
v -0.247399 0.142836 -0.010578
v -0.275937 0.073937 -0.010578
v -0.285671 0.000000 -0.010578
v -0.275937 -0.073937 -0.010578
v -0.247399 -0.142836 -0.010578
v -0.202000 -0.202000 -0.010578
v -0.142836 -0.247399 -0.010578
v -0.073937 -0.275937 -0.010578
v -0.000000 -0.285671 -0.010578
v 0.073937 -0.275937 -0.010578
v 0.142836 -0.247399 -0.010578
v 0.202000 -0.202000 -0.010578
v 0.247399 -0.142836 -0.010578
v 0.275937 -0.073937 -0.010578
v 0.285671 -0.000000 -0.010578
v 0.275937 0.073937 -0.010578
v 0.247399 0.142835 -0.010578
v 0.202000 0.202000 -0.010578
v 0.142836 0.247399 -0.010578
v 0.073937 0.275937 -0.010578
v -0.000000 0.214839 -0.010578
v -0.055604 0.207519 -0.010578
v -0.107420 0.186056 -0.010578
v -0.151914 0.151914 -0.010578
v -0.186056 0.107419 -0.010578
v -0.207519 0.055604 -0.010578
v -0.214839 0.000000 -0.010578
v -0.207519 -0.055604 -0.010578
v -0.186056 -0.107419 -0.010578
v -0.151914 -0.151914 -0.010578
v -0.107420 -0.186056 -0.010578
v -0.055605 -0.207519 -0.010578
v -0.000000 -0.214839 -0.010578
v 0.055604 -0.207519 -0.010578
v 0.107419 -0.186056 -0.010578
v 0.151914 -0.151914 -0.010578
v 0.186056 -0.107420 -0.010578
v 0.207519 -0.055605 -0.010578
v 0.214839 -0.000000 -0.010578
v 0.207519 0.055604 -0.010578
v 0.186056 0.107419 -0.010578
v 0.151914 0.151914 -0.010578
v 0.107420 0.186056 -0.010578
v 0.055605 0.207518 -0.010578
vt 0.168830 0.516875
vt 0.110133 0.481369
vt 0.127620 0.458919
vt 0.179869 0.490627
vt 0.430305 0.485101
vt 0.370365 0.519352
vt 0.359222 0.493003
vt 0.412622 0.462542
vt 0.532015 0.239903
vt 0.531964 0.309345
vt 0.503359 0.305950
vt 0.503476 0.244013
vt 0.370509 0.028359
vt 0.430523 0.063229
vt 0.413205 0.086271
vt 0.359765 0.055066
vt 0.108358 0.063014
vt 0.167791 0.028265
vt 0.179160 0.054507
vt 0.126162 0.085295
vt 0.011134 0.306310
vt 0.010159 0.238078
vt 0.038344 0.241007
vt 0.039176 0.301995
vt 0.303657 0.536657
vt 0.299835 0.508358
vt 0.513984 0.376339
vt 0.487269 0.365675
vt 0.026799 0.171782
vt 0.053293 0.181935
vt 0.062635 0.431914
vt 0.085290 0.414657
vt 0.479512 0.112489
vt 0.456812 0.130286
vt 0.234421 0.010259
vt 0.238540 0.038634
vt 0.234864 0.535797
vt 0.238623 0.507539
vt 0.479306 0.436301
vt 0.456313 0.419097
vt 0.303598 0.010286
vt 0.300169 0.038817
vt 0.060261 0.112019
vt 0.083228 0.128800
vt 0.029096 0.372156
vt 0.055311 0.361000
vt 0.514128 0.172756
vt 0.487602 0.184094
vt 0.155544 0.424366
vt 0.197749 0.450017
vt 0.342486 0.451660
vt 0.385577 0.426917
vt 0.458728 0.299919
vt 0.458743 0.249699
vt 0.385505 0.121793
vt 0.342232 0.096469
vt 0.196119 0.095728
vt 0.153256 0.120506
vt 0.082292 0.246241
vt 0.083366 0.295798
vt 0.294564 0.464193
vt 0.445789 0.348348
vt 0.121439 0.388244
vt 0.420842 0.157488
vt 0.244146 0.082999
vt 0.094301 0.198440
vt 0.245166 0.463652
vt 0.420829 0.391671
vt 0.118530 0.155590
vt 0.097316 0.344007
vt 0.445823 0.201116
vt 0.294002 0.083241
vt 0.168912 0.407721
vt 0.206151 0.430517
vt 0.334207 0.431908
vt 0.372375 0.409960
vt 0.204400 0.115477
vt 0.166382 0.137326
vt 0.103436 0.248443
vt 0.104587 0.292304
vt 0.437215 0.297256
vt 0.437236 0.252663
vt 0.372316 0.139005
vt 0.333953 0.116456
vt 0.291778 0.443028
vt 0.425739 0.340245
vt 0.403644 0.170744
vt 0.246989 0.104305
vt 0.114090 0.206176
vt 0.138862 0.375522
vt 0.248072 0.442569
vt 0.403612 0.378691
vt 0.425788 0.209511
vt 0.291193 0.104627
vt 0.135579 0.168288
vt 0.117771 0.335466
vt 0.304917 0.546796
vt 0.233412 0.545894
vt 0.523490 0.380250
vt 0.487459 0.442537
vt 0.054499 0.437985
vt 0.019741 0.376020
vt 0.487684 0.106213
vt 0.523643 0.168802
vt 0.233044 0.000100
vt 0.304921 0.000100
vt 0.017357 0.168059
vt 0.052102 0.105938
vt 0.164783 0.526221
vt 0.436542 0.493233
vt 0.102064 0.054984
vt 0.001130 0.307748
vt 0.542224 0.238539
vt 0.374440 0.018853
vt 0.103803 0.489326
vt 0.374250 0.528819
vt 0.436790 0.055057
vt 0.163813 0.018842
vt 0.000100 0.236933
vt 0.542170 0.310663
vt 0.911610 0.045802
vt 0.954198 0.088389
vt 0.908814 0.123214
vt 0.876786 0.091186
vt 0.999900 0.258951
vt 0.984312 0.317127
vt 0.931461 0.295236
vt 0.943184 0.251485
vt 0.859452 0.441988
vt 0.801276 0.457576
vt 0.793809 0.400860
vt 0.837560 0.389137
vt 0.630714 0.411873
vt 0.588126 0.369286
vt 0.633510 0.334462
vt 0.665538 0.366490
vt 0.542425 0.198723
vt 0.558013 0.140548
vt 0.610863 0.162439
vt 0.599140 0.206190
vt 0.682873 0.015688
vt 0.741048 0.000100
vt 0.748515 0.056816
vt 0.704764 0.068539
vt 0.859452 0.015688
vt 0.837560 0.068539
vt 0.999900 0.198724
vt 0.943184 0.206191
vt 0.911611 0.411874
vt 0.876786 0.366490
vt 0.682873 0.441988
vt 0.704764 0.389137
vt 0.542425 0.258951
vt 0.599140 0.251484
vt 0.630714 0.045802
vt 0.665538 0.091186
vt 0.801276 0.000100
vt 0.793809 0.056816
vt 0.984312 0.140548
vt 0.931461 0.162440
vt 0.588127 0.088389
vt 0.633511 0.123213
vt 0.954198 0.369286
vt 0.908814 0.334462
vt 0.741048 0.457576
vt 0.748515 0.400860
vt 0.558013 0.317127
vt 0.610863 0.295235
vn 0.2587 0.9655 0.0308
vn 0.0000 0.9995 0.0308
vn 0.0000 0.6679 0.7442
vn 0.1729 0.6452 0.7442
vn 0.9655 0.2587 0.0308
vn 0.8656 0.4998 0.0308
vn 0.5785 0.3340 0.7442
vn 0.6452 0.1729 0.7442
vn 0.7068 -0.7068 0.0308
vn 0.8656 -0.4998 0.0308
vn 0.5785 -0.3340 0.7442
vn 0.4723 -0.4723 0.7442
vn -0.2587 -0.9655 0.0308
vn -0.0000 -0.9995 0.0308
vn -0.0000 -0.6679 0.7442
vn -0.1729 -0.6452 0.7442
vn -0.9655 -0.2587 0.0308
vn -0.8656 -0.4998 0.0308
vn -0.5785 -0.3340 0.7442
vn -0.6452 -0.1729 0.7442
vn -0.7068 0.7068 0.0308
vn -0.8656 0.4998 0.0308
vn -0.5785 0.3340 0.7442
vn -0.4723 0.4723 0.7442
vn 0.7068 0.7068 0.0308
vn 0.4723 0.4723 0.7442
vn 0.9655 -0.2587 0.0308
vn 0.6452 -0.1729 0.7442
vn -0.9655 0.2587 0.0308
vn -0.6452 0.1729 0.7442
vn -0.2587 0.9655 0.0308
vn -0.1729 0.6452 0.7442
vn 0.2587 -0.9655 0.0308
vn 0.1729 -0.6452 0.7442
vn -0.7068 -0.7068 0.0308
vn -0.4723 -0.4723 0.7442
vn 0.4998 0.8656 0.0308
vn 0.3340 0.5785 0.7442
vn 0.9995 -0.0000 0.0308
vn 0.6679 -0.0000 0.7442
vn -0.4998 -0.8656 0.0308
vn -0.3340 -0.5785 0.7442
vn -0.9995 0.0000 0.0308
vn -0.6679 -0.0000 0.7442
vn -0.4998 0.8656 0.0308
vn -0.3340 0.5785 0.7442
vn 0.4998 -0.8656 0.0308
vn 0.3340 -0.5785 0.7442
vn -0.0000 -0.6594 0.7518
vn -0.1707 -0.6369 0.7518
vn -0.5711 -0.3297 0.7518
vn -0.6369 -0.1707 0.7518
vn -0.5711 0.3297 0.7518
vn -0.4663 0.4663 0.7518
vn 0.0000 0.6594 0.7518
vn 0.1707 0.6369 0.7518
vn 0.5711 0.3297 0.7518
vn 0.6369 0.1707 0.7518
vn 0.5711 -0.3297 0.7518
vn 0.4663 -0.4663 0.7518
vn -0.4663 -0.4663 0.7518
vn -0.6369 0.1707 0.7518
vn 0.1707 -0.6369 0.7518
vn -0.1707 0.6369 0.7518
vn 0.4663 0.4663 0.7518
vn 0.6369 -0.1707 0.7518
vn -0.3297 -0.5711 0.7518
vn -0.6594 -0.0000 0.7518
vn 0.6594 -0.0000 0.7518
vn 0.3297 -0.5711 0.7518
vn -0.3297 0.5711 0.7518
vn 0.3297 0.5711 0.7518
vn -0.0000 -0.7343 0.6789
vn -0.1900 -0.7092 0.6789
vn -0.6359 -0.3671 0.6789
vn -0.7092 -0.1900 0.6789
vn 0.6359 0.3671 0.6789
vn 0.7092 0.1900 0.6789
vn 0.6359 -0.3671 0.6789
vn 0.5192 -0.5192 0.6789
vn -0.6359 0.3671 0.6789
vn -0.5192 0.5192 0.6789
vn 0.0000 0.7343 0.6789
vn 0.1900 0.7092 0.6789
vn -0.5192 -0.5192 0.6789
vn -0.7092 0.1900 0.6789
vn -0.1900 0.7092 0.6789
vn 0.5192 0.5192 0.6789
vn 0.7092 -0.1900 0.6789
vn 0.1900 -0.7092 0.6789
vn -0.3671 -0.6359 0.6789
vn -0.7343 0.0000 0.6789
vn -0.3671 0.6359 0.6789
vn 0.3671 0.6359 0.6789
vn 0.7343 -0.0000 0.6789
vn 0.3671 -0.6359 0.6789
vn 0.4795 0.4795 -0.7349
vn 0.3391 0.5873 -0.7349
vn 0.6550 -0.1755 -0.7349
vn 0.6781 0.0000 -0.7349
vn -0.1755 0.6550 -0.7349
vn -0.3391 0.5873 -0.7349
vn 0.1755 -0.6550 -0.7349
vn 0.3391 -0.5873 -0.7349
vn -0.4795 -0.4795 -0.7349
vn -0.3391 -0.5873 -0.7349
vn -0.6550 0.1755 -0.7349
vn -0.6781 0.0000 -0.7349
vn 0.1755 0.6550 -0.7349
vn 0.6550 0.1755 -0.7349
vn -0.6550 -0.1755 -0.7349
vn -0.4795 0.4795 -0.7349
vn 0.4795 -0.4795 -0.7349
vn -0.1755 -0.6550 -0.7349
vn 0.0000 0.6781 -0.7349
vn 0.5873 0.3391 -0.7349
vn -0.0000 -0.6781 -0.7349
vn -0.5873 -0.3391 -0.7349
vn -0.5873 0.3391 -0.7349
vn 0.5873 -0.3391 -0.7349
vn -0.0000 0.0000 -1.0000
g round-wood-shield_Circle.005_shield_t1
usemtl shield_t1
s 1
f 24/1/1 1/2/2 25/3/3 48/4/4
f 20/5/5 21/6/6 45/7/7 44/8/8
f 16/9/9 17/10/10 41/11/11 40/12/12
f 12/13/13 13/14/14 37/15/15 36/16/16
f 8/17/17 9/18/18 33/19/19 32/20/20
f 4/21/21 5/22/22 29/23/23 28/24/24
f 21/6/6 22/25/25 46/26/26 45/7/7
f 17/10/10 18/27/27 42/28/28 41/11/11
f 5/22/22 6/29/29 30/30/30 29/23/23
f 1/2/2 2/31/31 26/32/32 25/3/3
f 13/14/14 14/33/33 38/34/34 37/15/15
f 9/18/18 10/35/35 34/36/36 33/19/19
f 22/25/25 23/37/37 47/38/38 46/26/26
f 18/27/27 19/39/39 43/40/40 42/28/28
f 10/35/35 11/41/41 35/42/42 34/36/36
f 6/29/29 7/43/43 31/44/44 30/30/30
f 2/31/31 3/45/45 27/46/46 26/32/32
f 14/33/33 15/47/47 39/48/48 38/34/34
f 23/37/37 24/1/1 48/4/4 47/38/38
f 19/39/39 20/5/5 44/8/8 43/40/40
f 15/47/47 16/9/9 40/12/12 39/48/48
f 11/41/41 12/13/13 36/16/16 35/42/42
f 7/43/43 8/17/17 32/20/20 31/44/44
f 3/45/45 4/21/21 28/24/24 27/46/46
f 48/4/4 25/3/3 49/49/49 72/50/50
f 44/8/8 45/7/7 69/51/51 68/52/52
f 40/12/12 41/11/11 65/53/53 64/54/54
f 36/16/16 37/15/15 61/55/55 60/56/56
f 32/20/20 33/19/19 57/57/57 56/58/58
f 28/24/24 29/23/23 53/59/59 52/60/60
f 45/7/7 46/26/26 70/61/61 69/51/51
f 41/11/11 42/28/28 66/62/62 65/53/53
f 25/3/3 26/32/32 50/63/63 49/49/49
f 37/15/15 38/34/34 62/64/64 61/55/55
f 33/19/19 34/36/36 58/65/65 57/57/57
f 29/23/23 30/30/30 54/66/66 53/59/59
f 46/26/26 47/38/38 71/67/67 70/61/61
f 42/28/28 43/40/40 67/68/68 66/62/62
f 30/30/30 31/44/44 55/69/69 54/66/66
f 26/32/32 27/46/46 51/70/70 50/63/63
f 38/34/34 39/48/48 63/71/71 62/64/64
f 34/36/36 35/42/42 59/72/72 58/65/65
f 47/38/38 48/4/4 72/50/50 71/67/67
f 43/40/40 44/8/8 68/52/52 67/68/68
f 35/42/42 36/16/16 60/56/56 59/72/72
f 31/44/44 32/20/20 56/58/58 55/69/69
f 27/46/46 28/24/24 52/60/60 51/70/70
f 39/48/48 40/12/12 64/54/54 63/71/71
f 72/50/50 49/49/49 73/73/73 96/74/74
f 68/52/52 69/51/51 93/75/75 92/76/76
f 56/58/58 57/57/57 81/77/77 80/78/78
f 52/60/60 53/59/59 77/79/79 76/80/80
f 64/54/54 65/53/53 89/81/81 88/82/82
f 60/56/56 61/55/55 85/83/83 84/84/84
f 69/51/51 70/61/61 94/85/85 93/75/75
f 65/53/53 66/62/62 90/86/86 89/81/81
f 61/55/55 62/64/64 86/87/87 85/83/83
f 57/57/57 58/65/65 82/88/88 81/77/77
f 53/59/59 54/66/66 78/89/89 77/79/79
f 49/49/49 50/63/63 74/90/90 73/73/73
f 70/61/61 71/67/67 95/91/91 94/85/85
f 66/62/62 67/68/68 91/92/92 90/86/86
f 62/64/64 63/71/71 87/93/93 86/87/87
f 58/65/65 59/72/72 83/94/94 82/88/88
f 54/66/66 55/69/69 79/95/95 78/89/89
f 50/63/63 51/70/70 75/96/96 74/90/90
f 71/67/67 72/50/50 96/74/74 95/91/91
f 67/68/68 68/52/52 92/76/76 91/92/92
f 51/70/70 52/60/60 76/80/80 75/96/96
f 63/71/71 64/54/54 88/82/82 87/93/93
f 59/72/72 60/56/56 84/84/84 83/94/94
f 55/69/69 56/58/58 80/78/78 79/95/95
f 23/37/37 22/25/25 118/97/97 119/98/98
f 19/39/39 18/27/27 114/99/99 115/100/100
f 3/45/45 2/31/31 98/101/101 99/102/102
f 15/47/47 14/33/33 110/103/103 111/104/104
f 11/41/41 10/35/35 106/105/105 107/106/106
f 7/43/43 6/29/29 102/107/107 103/108/108
f 24/1/1 23/37/37 119/98/98 120/109/109
f 20/5/5 19/39/39 115/100/100 116/110/110
f 8/17/17 7/43/43 103/108/108 104/111/111
f 4/21/21 3/45/45 99/102/102 100/112/112
f 16/9/9 15/47/47 111/104/104 112/113/113
f 12/13/13 11/41/41 107/106/106 108/114/114
f 1/2/2 24/1/1 120/109/109 97/115/115
f 21/6/6 20/5/5 116/110/110 117/116/116
f 13/14/14 12/13/13 108/114/114 109/117/117
f 9/18/18 8/17/17 104/111/111 105/118/118
f 5/22/22 4/21/21 100/112/112 101/119/119
f 17/10/10 16/9/9 112/113/113 113/120/120
f 22/25/25 21/6/6 117/116/116 118/97/97
f 18/27/27 17/10/10 113/120/120 114/99/99
f 14/33/33 13/14/14 109/117/117 110/103/103
f 10/35/35 9/18/18 105/118/118 106/105/105
f 6/29/29 5/22/22 101/119/119 102/107/107
f 2/31/31 1/2/2 97/115/115 98/101/101
f 119/121/98 118/122/97 142/123/121 143/124/121
f 115/125/100 114/126/99 138/127/121 139/128/121
f 111/129/104 110/130/103 134/131/121 135/132/121
f 107/133/106 106/134/105 130/135/121 131/136/121
f 103/137/108 102/138/107 126/139/121 127/140/121
f 99/141/102 98/142/101 122/143/121 123/144/121
f 120/145/109 119/121/98 143/124/121 144/146/121
f 116/147/110 115/125/100 139/128/121 140/148/121
f 112/149/113 111/129/104 135/132/121 136/150/121
f 108/151/114 107/133/106 131/136/121 132/152/121
f 104/153/111 103/137/108 127/140/121 128/154/121
f 100/155/112 99/141/102 123/144/121 124/156/121
f 97/157/115 120/145/109 144/146/121 121/158/121
f 117/159/116 116/147/110 140/148/121 141/160/121
f 101/161/119 100/155/112 124/156/121 125/162/121
f 113/163/120 112/149/113 136/150/121 137/164/121
f 109/165/117 108/151/114 132/152/121 133/166/121
f 105/167/118 104/153/111 128/154/121 129/168/121
f 118/122/97 117/159/116 141/160/121 142/123/121
f 114/126/99 113/163/120 137/164/121 138/127/121
f 106/134/105 105/167/118 129/168/121 130/135/121
f 102/138/107 101/161/119 125/162/121 126/139/121
f 98/142/101 97/157/115 121/158/121 122/143/121
f 110/130/103 109/165/117 133/166/121 134/131/121
f 74/90/90 75/96/96 76/80/80 77/79/79 78/89/89 79/95/95 80/78/78 81/77/77 82/88/88 83/94/94 84/84/84 85/83/83 86/87/87 87/93/93 88/82/82 89/81/81 90/86/86 91/92/92 92/76/76 93/75/75 94/85/85 95/91/91 96/74/74 73/73/73
f 122/143/121 121/158/121 144/146/121 143/124/121 142/123/121 141/160/121 140/148/121 139/128/121 138/127/121 137/164/121 136/150/121 135/132/121 134/131/121 133/166/121 132/152/121 131/136/121 130/135/121 129/168/121 128/154/121 127/140/121 126/139/121 125/162/121 124/156/121 123/144/121
