# Blender v3.2.1 OBJ File: 'denm sword.blend'
# www.blender.org
mtllib broadsword.mtl
o denmar_sword.000
v 0.019907 0.011493 -0.211031
v 0.000000 0.022986 -0.211031
v 0.000000 0.014533 -0.193572
v 0.012586 0.007267 -0.193572
v 0.019907 -0.011493 -0.211031
v 0.012586 -0.007266 -0.193572
v 0.000000 -0.022986 -0.211031
v 0.000000 -0.014533 -0.193572
v 0.000000 0.014858 -0.043033
v 0.000000 0.014858 -0.043033
v 0.012626 0.007619 -0.043310
v 0.012626 0.007619 -0.043310
v 0.012626 -0.007619 -0.043310
v 0.012626 -0.007619 -0.043310
v 0.000000 -0.014858 -0.043033
v 0.000000 -0.014858 -0.043033
v 0.000000 -0.033554 -0.245505
v 0.000000 -0.033554 -0.245505
v 0.000000 -0.067226 -0.015088
v 0.000000 -0.067226 -0.015088
v 0.025347 -0.053050 -0.015088
v 0.025347 -0.053050 0.015088
v 0.000000 -0.067226 0.015088
v 0.025347 0.053050 -0.015088
v 0.025347 0.053050 0.015088
v -0.000000 0.067226 -0.015088
v -0.000000 0.067226 -0.015088
v -0.000000 0.067226 0.015088
v 0.019090 -0.048536 0.028595
v -0.000000 -0.059213 0.028595
v -0.000000 -0.059213 0.028595
v 0.019090 0.048536 0.028595
v -0.000000 0.059213 0.028595
v -0.000000 0.059213 0.028595
v 0.016722 -0.014383 -0.036776
v 0.016807 -0.014682 -0.011887
v 0.000000 -0.023819 -0.011715
v 0.000000 -0.019198 -0.036488
v 0.016807 0.014682 -0.011887
v 0.016722 0.014383 -0.036776
v 0.000000 0.019198 -0.036488
v 0.000000 0.023819 -0.011715
v -0.019907 0.011493 -0.211031
v -0.012586 0.007267 -0.193572
v -0.019907 -0.011493 -0.211031
v -0.012586 -0.007266 -0.193572
v -0.012626 0.007619 -0.043310
v -0.012626 0.007619 -0.043310
v -0.012626 -0.007619 -0.043310
v -0.012626 -0.007619 -0.043310
v 0.000000 0.037977 -0.207532
v 0.000000 0.037977 -0.207532
v -0.025347 -0.053050 0.015088
v -0.025347 -0.053050 -0.015088
v -0.025347 0.053050 0.015088
v -0.025347 0.053050 -0.015088
v -0.019090 -0.048536 0.028595
v -0.019090 0.048536 0.028595
v -0.016722 -0.014383 -0.036776
v -0.016807 -0.014682 -0.011887
v -0.016807 0.014682 -0.011887
v -0.016722 0.014383 -0.036776
v 0.004198 -0.014036 1.090295
v 0.004198 0.014571 1.090295
v -0.000000 0.000268 1.160097
v -0.000000 0.000268 1.160097
v -0.000000 -0.023732 1.090048
v -0.000000 -0.023732 1.090048
v -0.000000 -0.030276 1.016230
v -0.000000 -0.030276 1.016230
v 0.005623 -0.017936 1.016354
v 0.005623 0.018472 1.016354
v -0.000000 0.030812 1.016230
v -0.000000 0.030812 1.016230
v -0.000000 0.024267 1.090048
v -0.000000 0.024267 1.090048
v -0.000000 -0.030276 0.568014
v -0.000000 -0.030276 0.568014
v -0.000000 -0.030276 0.568014
v -0.000000 -0.030276 0.568014
v 0.005624 -0.017936 0.568076
v 0.005624 -0.017936 0.568076
v 0.005624 0.018472 0.568076
v 0.005624 0.018472 0.568076
v -0.000000 0.030812 0.568014
v -0.000000 0.030812 0.568014
v -0.000000 0.030812 0.568014
v -0.000000 0.030812 0.568014
v -0.000000 -0.030276 0.026005
v -0.000000 -0.030276 0.026005
v 0.005624 -0.017936 0.026005
v 0.005624 0.018472 0.026005
v -0.000000 0.030812 0.026005
v -0.000000 0.030812 0.026005
v -0.004199 -0.014036 1.090295
v -0.004199 0.014571 1.090295
v -0.005624 -0.017936 1.016354
v -0.005624 0.018472 1.016354
v -0.005624 -0.017936 0.568076
v -0.005624 -0.017936 0.568076
v -0.005624 0.018472 0.568076
v -0.005624 0.018472 0.568076
v -0.005624 -0.017936 0.026005
v -0.005624 0.018472 0.026005
v 0.013211 -0.006399 0.243984
v 0.013211 -0.006399 0.243984
v 0.011204 0.000268 0.257116
v 0.011204 0.000268 0.257116
v 0.006795 0.000268 0.282962
v 0.006795 -0.017120 0.244291
v 0.013299 -0.017120 0.024928
v 0.015514 -0.006448 0.024934
v 0.015514 -0.006448 0.024934
v 0.004174 -0.017120 0.244291
v 0.004174 -0.017120 0.024928
v 0.004174 0.000268 0.282962
v 0.003387 -0.006448 0.024934
v 0.003387 -0.006399 0.243984
v 0.003387 0.000268 0.257116
v 0.013211 0.006935 0.243984
v 0.013211 0.006935 0.243984
v 0.006795 0.017656 0.244291
v 0.013299 0.017656 0.024928
v 0.015514 0.006984 0.024934
v 0.015514 0.006984 0.024934
v 0.004174 0.017656 0.024928
v 0.004174 0.017656 0.244291
v 0.003387 0.006935 0.243984
v 0.003387 0.006984 0.024934
v -0.013211 -0.006399 0.243984
v -0.013211 -0.006399 0.243984
v -0.006796 -0.017120 0.244291
v -0.006796 0.000268 0.282962
v -0.011204 0.000268 0.257116
v -0.011204 0.000268 0.257116
v -0.013299 -0.017120 0.024928
v -0.015514 -0.006448 0.024934
v -0.015514 -0.006448 0.024934
v -0.004174 -0.017120 0.024928
v -0.004174 -0.017120 0.244291
v -0.004174 0.000268 0.282962
v -0.003387 -0.006399 0.243984
v -0.003387 -0.006448 0.024934
v -0.003387 0.000268 0.257116
v -0.013211 0.006935 0.243984
v -0.013211 0.006935 0.243984
v -0.006796 0.017656 0.244291
v -0.013299 0.017656 0.024928
v -0.015514 0.006984 0.024934
v -0.015514 0.006984 0.024934
v -0.004174 0.017656 0.244291
v -0.004174 0.017656 0.024928
v -0.003387 0.006984 0.024934
v -0.003387 0.006935 0.243984
v 0.016677 -0.027916 -0.245515
v 0.000000 0.033554 -0.245505
v 0.000000 0.033554 -0.245505
v 0.016677 0.027916 -0.245515
v 0.000000 -0.037298 -0.234271
v 0.000000 -0.037977 -0.207532
v 0.000000 -0.037977 -0.207532
v 0.021757 -0.030126 -0.234139
v 0.022225 -0.030416 -0.207400
v 0.000000 0.037298 -0.234271
v 0.021757 0.030126 -0.234139
v 0.022225 0.030416 -0.207400
v -0.016677 -0.027916 -0.245515
v -0.016677 0.027916 -0.245515
v -0.021757 -0.030126 -0.234139
v -0.022224 -0.030416 -0.207400
v -0.021757 0.030126 -0.234139
v -0.022224 0.030416 -0.207400
vt 0.695729 0.676983
vt 0.695657 0.718557
vt 0.665329 0.708349
vt 0.666591 0.675168
vt 0.695782 0.638523
vt 0.666498 0.640218
vt 0.696061 0.596968
vt 0.665046 0.606987
vt 0.449099 0.707555
vt 0.449356 0.675974
vt 0.449239 0.644445
vt 0.448477 0.612918
vt 0.481446 0.824306
vt 0.577885 0.813233
vt 0.583073 0.891022
vt 0.494114 0.905248
vt 0.889357 0.813376
vt 0.884081 0.891158
vt 0.985783 0.824528
vt 0.973024 0.905459
vt 0.589835 0.930454
vt 0.515611 0.944311
vt 0.877273 0.930585
vt 0.951482 0.944505
vt 0.418789 0.635697
vt 0.375398 0.633149
vt 0.380635 0.592889
vt 0.425754 0.602731
vt 0.376452 0.693241
vt 0.419727 0.689172
vt 0.427845 0.721874
vt 0.383098 0.733293
vt 0.433459 0.643454
vt 0.434116 0.680905
vt 0.440670 0.715071
vt 0.929279 0.740151
vt 0.538052 0.739971
vt 0.905815 0.985762
vt 0.561225 0.985604
vt 0.438810 0.609079
vt 0.695729 0.676983
vt 0.666591 0.675168
vt 0.695782 0.638523
vt 0.666498 0.640218
vt 0.449356 0.675974
vt 0.449239 0.644445
vt 0.583073 0.891022
vt 0.577885 0.813233
vt 0.884081 0.891158
vt 0.889357 0.813376
vt 0.589835 0.930454
vt 0.877273 0.930585
vt 0.418789 0.635697
vt 0.375398 0.633149
vt 0.376452 0.693241
vt 0.419727 0.689172
vt 0.433459 0.643454
vt 0.434116 0.680905
vt 0.080338 0.336685
vt 0.080338 0.375859
vt 0.004684 0.356272
vt 0.080161 0.322595
vt 0.160492 0.313434
vt 0.160507 0.331406
vt 0.160507 0.381137
vt 0.160493 0.399109
vt 0.080161 0.389948
vt 0.985530 0.313531
vt 0.985485 0.331454
vt 0.985485 0.381089
vt 0.985531 0.399012
vt 0.986566 0.422053
vt 0.986566 0.439904
vt 0.161546 0.439904
vt 0.161613 0.422053
vt 0.986566 0.489393
vt 0.161546 0.489393
vt 0.986566 0.507243
vt 0.161613 0.507243
vt 0.080364 0.375694
vt 0.004510 0.356776
vt 0.080291 0.336805
vt 0.080396 0.389563
vt 0.160549 0.381036
vt 0.160564 0.398949
vt 0.160503 0.331412
vt 0.080097 0.322776
vt 0.160473 0.313488
vt 0.985581 0.398896
vt 0.985520 0.381006
vt 0.985493 0.331439
vt 0.985525 0.313548
vt 0.986567 0.507238
vt 0.161613 0.507238
vt 0.161546 0.489390
vt 0.986566 0.489390
vt 0.161546 0.439908
vt 0.986566 0.439908
vt 0.161613 0.422060
vt 0.986566 0.422060
vt 0.372416 0.573694
vt 0.348545 0.585315
vt 0.304317 0.581518
vt 0.371845 0.548644
vt 0.954035 0.547580
vt 0.954274 0.570344
vt 0.370844 0.544450
vt 0.953592 0.532075
vt 0.302461 0.577435
vt 0.478088 0.554909
vt 0.816724 0.545354
vt 0.817243 0.562969
vt 0.478509 0.569178
vt 0.462782 0.558106
vt 0.463118 0.569461
vt 0.372416 0.573694
vt 0.371845 0.548644
vt 0.954035 0.547580
vt 0.954274 0.570344
vt 0.953592 0.532075
vt 0.370844 0.544450
vt 0.478088 0.554909
vt 0.478509 0.569178
vt 0.817243 0.562969
vt 0.816724 0.545354
vt 0.372416 0.573694
vt 0.371845 0.548644
vt 0.304317 0.581518
vt 0.348545 0.585315
vt 0.954035 0.547580
vt 0.954274 0.570344
vt 0.953592 0.532075
vt 0.370844 0.544450
vt 0.302461 0.577435
vt 0.478088 0.554909
vt 0.478509 0.569178
vt 0.817243 0.562969
vt 0.816724 0.545354
vt 0.462782 0.558106
vt 0.463118 0.569461
vt 0.372416 0.573694
vt 0.371845 0.548644
vt 0.954035 0.547580
vt 0.954274 0.570344
vt 0.370844 0.544450
vt 0.953592 0.532075
vt 0.478088 0.554909
vt 0.816724 0.545354
vt 0.817243 0.562969
vt 0.478509 0.569178
vt 0.264367 0.871421
vt 0.385990 0.874479
vt 0.384713 0.903436
vt 0.265112 0.902250
vt 0.212465 0.883532
vt 0.223310 0.912598
vt 0.393528 0.812692
vt 0.449251 0.823428
vt 0.437035 0.886835
vt 0.257021 0.812692
vt 0.264367 0.871421
vt 0.265112 0.902250
vt 0.384713 0.903436
vt 0.385990 0.874479
vt 0.257021 0.812692
vt 0.393528 0.812692
vt 0.251585 0.939615
vt 0.397496 0.941061
vt 0.411766 0.760706
vt 0.238783 0.760706
vt 0.425406 0.915008
vt 0.202479 0.821469
vn 0.4611 0.7987 0.3867
vn 0.9222 0.0000 0.3867
vn 0.4611 -0.7987 0.3867
vn 0.4973 0.8676 -0.0022
vn 0.5000 0.8660 -0.0019
vn 1.0000 0.0000 -0.0003
vn 0.4973 -0.8676 -0.0019
vn 0.5000 -0.8660 -0.0022
vn 0.4881 -0.8728 0.0000
vn 1.0000 0.0000 0.0000
vn 0.4881 0.8728 0.0000
vn 0.4335 -0.7750 0.4598
vn 0.9074 0.0000 0.4204
vn 0.4335 0.7750 0.4598
vn 0.4775 -0.8785 -0.0122
vn 0.2695 -0.9467 -0.1766
vn 0.2765 0.9609 -0.0125
vn 0.4701 0.8677 -0.1619
vn 1.0000 0.0000 -0.0034
vn 0.8473 0.0000 -0.5311
vn 0.2246 0.8121 -0.5385
vn 0.3042 0.5602 -0.7705
vn 0.0000 0.0000 -1.0000
vn -0.0000 -0.0000 1.0000
vn 0.3042 -0.5602 -0.7705
vn 0.2246 -0.8121 -0.5385
vn -0.4611 0.7987 0.3867
vn -0.9222 -0.0000 0.3867
vn -0.4611 -0.7987 0.3867
vn -0.5000 0.8660 -0.0019
vn -0.4973 0.8676 -0.0022
vn -1.0000 -0.0000 -0.0003
vn -0.5000 -0.8660 -0.0022
vn -0.4973 -0.8676 -0.0019
vn -0.4881 -0.8728 0.0000
vn -1.0000 -0.0000 -0.0000
vn -0.4881 0.8728 -0.0000
vn -0.4335 -0.7750 0.4598
vn -0.9074 -0.0000 0.4204
vn -0.4335 0.7750 0.4598
vn -0.2695 -0.9467 -0.1766
vn -0.4775 -0.8786 -0.0122
vn -0.4701 0.8677 -0.1619
vn -0.2765 0.9609 -0.0125
vn -1.0000 -0.0000 -0.0034
vn -0.8473 -0.0000 -0.5311
vn -0.3042 0.5602 -0.7705
vn -0.2246 0.8121 -0.5385
vn -0.2246 -0.8121 -0.5385
vn -0.3042 -0.5602 -0.7705
vn 0.9982 0.0000 0.0600
vn 0.9092 -0.4147 0.0368
vn 0.9166 -0.3979 0.0387
vn 0.9079 -0.3966 0.1359
vn 0.9998 0.0000 0.0193
vn 0.9092 0.4147 0.0368
vn 0.9166 0.3979 0.0387
vn 0.9079 0.3966 0.1359
vn 0.9100 -0.4147 0.0000
vn 0.9100 0.4147 0.0000
vn -0.9982 -0.0000 0.0600
vn -0.9166 -0.3979 0.0387
vn -0.9092 -0.4147 0.0368
vn -0.9079 -0.3966 0.1359
vn -0.9998 -0.0000 0.0193
vn -0.9166 0.3979 0.0387
vn -0.9092 0.4147 0.0368
vn -0.9079 0.3966 0.1359
vn -0.9100 -0.4147 -0.0000
vn -0.9100 0.4147 -0.0000
vn 0.9852 -0.0344 0.1680
vn 0.8393 -0.4959 0.2230
vn 0.9791 -0.2032 0.0103
vn 0.8581 -0.5128 0.0254
vn 0.0000 -1.0000 -0.0000
vn -0.0000 -0.9120 0.4101
vn -0.0000 1.0000 -0.0002
vn -0.0000 0.8917 -0.4527
vn 0.8393 0.4959 0.2230
vn 0.9852 0.0344 0.1680
vn 0.8581 0.5128 0.0254
vn 0.9791 0.2032 0.0103
vn -0.0000 1.0000 -0.0000
vn 0.0000 0.9120 0.4101
vn 0.0000 -1.0000 -0.0002
vn -0.0000 -0.8917 -0.4527
vn -0.8393 -0.4959 0.2230
vn -0.9852 -0.0344 0.1680
vn -0.8581 -0.5128 0.0254
vn -0.9791 -0.2032 0.0103
vn -0.9852 0.0344 0.1680
vn -0.8393 0.4959 0.2230
vn -0.9791 0.2032 0.0103
vn -0.8581 0.5128 0.0254
vn 0.9131 0.0000 -0.4077
vn 0.2994 0.9027 -0.3090
vn 0.3052 0.9034 -0.3011
vn 0.3221 -0.9464 -0.0240
vn 0.3131 -0.9496 -0.0158
vn 0.9998 0.0000 -0.0175
vn -0.9131 -0.0000 -0.4077
vn -0.9998 -0.0000 -0.0175
vn 0.0006 0.0000 -1.0000
vn 0.0060 0.0000 1.0000
vn -0.3042 -0.9005 -0.3108
vn -0.3001 -0.9050 -0.3016
vn -0.3052 0.9034 -0.3011
vn -0.2994 0.9027 -0.3090
vn -0.3131 -0.9496 -0.0158
vn -0.3221 -0.9464 -0.0240
vn -0.3131 0.9494 -0.0241
vn -0.3221 0.9466 -0.0159
vn -0.0006 -0.0000 -1.0000
vn 0.3001 -0.9050 -0.3016
vn 0.3042 -0.9005 -0.3108
vn -0.0060 -0.0000 1.0000
vn 0.3221 0.9466 -0.0159
vn 0.3131 0.9494 -0.0241
usemtl densw-mat
s off
f 1/1/1 2/2/1 3/3/1
f 1/1/1 3/3/1 4/4/1
f 5/5/2 1/1/2 4/4/2
f 5/5/2 4/4/2 6/6/2
f 7/7/3 5/5/3 6/6/3
f 7/7/3 6/6/3 8/8/3
f 9/9/4 11/10/4 4/4/4
f 9/9/5 4/4/5 3/3/5
f 4/4/6 11/10/6 13/11/6
f 4/4/6 13/11/6 6/6/6
f 13/11/7 15/12/7 8/8/7
f 13/11/8 8/8/8 6/6/8
f 19/13/9 21/14/9 22/15/9
f 19/13/9 22/15/9 23/16/9
f 21/14/10 24/17/10 25/18/10
f 21/14/10 25/18/10 22/15/10
f 24/17/11 26/19/11 28/20/11
f 24/17/11 28/20/11 25/18/11
f 23/16/12 22/15/12 29/21/12
f 23/16/12 29/21/12 30/22/12
f 22/15/13 25/18/13 32/23/13
f 22/15/13 32/23/13 29/21/13
f 25/18/14 28/20/14 33/24/14
f 25/18/14 33/24/14 32/23/14
f 35/25/15 36/26/15 37/27/15
f 35/25/16 37/27/16 38/28/16
f 39/29/17 40/30/17 41/31/17
f 39/29/18 41/31/18 42/32/18
f 40/30/19 39/29/19 36/26/19
f 40/30/19 36/26/19 35/25/19
f 14/33/20 12/34/20 40/30/20
f 14/33/20 40/30/20 35/25/20
f 10/35/21 41/31/21 40/30/21
f 10/35/22 40/30/22 12/34/22
f 27/36/23 24/17/23 21/14/23
f 27/36/23 21/14/23 20/37/23
f 32/23/24 34/38/24 31/39/24
f 32/23/24 31/39/24 29/21/24
f 16/40/25 14/33/25 35/25/25
f 16/40/26 35/25/26 38/28/26
f 43/41/27 44/42/27 3/3/27
f 43/41/27 3/3/27 2/2/27
f 45/43/28 46/44/28 44/42/28
f 45/43/28 44/42/28 43/41/28
f 7/7/29 8/8/29 46/44/29
f 7/7/29 46/44/29 45/43/29
f 9/9/30 3/3/30 44/42/30
f 9/9/31 44/42/31 47/45/31
f 44/42/32 46/44/32 49/46/32
f 44/42/32 49/46/32 47/45/32
f 49/46/33 46/44/33 8/8/33
f 49/46/34 8/8/34 15/12/34
f 19/13/35 23/16/35 53/47/35
f 19/13/35 53/47/35 54/48/35
f 54/48/36 53/47/36 55/49/36
f 54/48/36 55/49/36 56/50/36
f 56/50/37 55/49/37 28/20/37
f 56/50/37 28/20/37 26/19/37
f 23/16/38 30/22/38 57/51/38
f 23/16/38 57/51/38 53/47/38
f 53/47/39 57/51/39 58/52/39
f 53/47/39 58/52/39 55/49/39
f 55/49/40 58/52/40 33/24/40
f 55/49/40 33/24/40 28/20/40
f 59/53/41 38/28/41 37/27/41
f 59/53/42 37/27/42 60/54/42
f 61/55/43 42/32/43 41/31/43
f 61/55/44 41/31/44 62/56/44
f 62/56/45 59/53/45 60/54/45
f 62/56/45 60/54/45 61/55/45
f 50/57/46 59/53/46 62/56/46
f 50/57/46 62/56/46 48/58/46
f 10/35/47 48/58/47 62/56/47
f 10/35/48 62/56/48 41/31/48
f 27/36/23 20/37/23 54/48/23
f 27/36/23 54/48/23 56/50/23
f 58/52/24 57/51/24 31/39/24
f 58/52/24 31/39/24 34/38/24
f 16/40/49 38/28/49 59/53/49
f 16/40/50 59/53/50 50/57/50
f 63/59/51 64/60/51 65/61/51
f 67/62/52 69/63/52 71/64/52
f 67/62/53 71/64/53 63/59/53
f 67/62/54 63/59/54 65/61/54
f 71/64/55 72/65/55 64/60/55
f 71/64/55 64/60/55 63/59/55
f 72/65/56 73/66/56 75/67/56
f 72/65/57 75/67/57 64/60/57
f 75/67/58 65/61/58 64/60/58
f 77/68/59 81/69/59 71/64/59
f 77/68/59 71/64/59 69/63/59
f 81/69/10 83/70/10 72/65/10
f 81/69/10 72/65/10 71/64/10
f 83/70/60 85/71/60 73/66/60
f 83/70/60 73/66/60 72/65/60
f 89/72/59 91/73/59 82/74/59
f 89/72/59 82/74/59 78/75/59
f 91/73/10 92/76/10 84/77/10
f 91/73/10 84/77/10 82/74/10
f 92/76/60 93/78/60 86/79/60
f 92/76/60 86/79/60 84/77/60
f 95/80/61 66/81/61 96/82/61
f 68/83/62 95/80/62 97/84/62
f 68/83/63 97/84/63 70/85/63
f 68/83/64 66/81/64 95/80/64
f 97/84/65 95/80/65 96/82/65
f 97/84/65 96/82/65 98/86/65
f 98/86/66 96/82/66 76/87/66
f 98/86/67 76/87/67 74/88/67
f 76/87/68 96/82/68 66/81/68
f 79/89/69 70/85/69 97/84/69
f 79/89/69 97/84/69 99/90/69
f 99/90/36 97/84/36 98/86/36
f 99/90/36 98/86/36 101/91/36
f 101/91/70 98/86/70 74/88/70
f 101/91/70 74/88/70 87/92/70
f 90/93/69 80/94/69 100/95/69
f 90/93/69 100/95/69 103/96/69
f 103/96/36 100/95/36 102/97/36
f 103/96/36 102/97/36 104/98/36
f 104/98/70 102/97/70 88/99/70
f 104/98/70 88/99/70 94/100/70
f 105/101/71 107/102/71 109/103/71
f 105/101/72 109/103/72 110/104/72
f 111/105/73 112/106/73 105/101/73
f 111/105/74 105/101/74 110/104/74
f 111/105/75 110/104/75 114/107/75
f 111/105/75 114/107/75 115/108/75
f 110/104/76 109/103/76 116/109/76
f 110/104/76 116/109/76 114/107/76
f 106/110/77 113/111/77 117/112/77
f 106/110/77 117/112/77 118/113/77
f 108/114/78 106/110/78 118/113/78
f 108/114/78 118/113/78 119/115/78
f 120/116/79 122/117/79 109/103/79
f 120/116/80 109/103/80 107/102/80
f 123/118/81 122/117/81 120/116/81
f 123/118/82 120/116/82 124/119/82
f 123/118/83 126/120/83 127/121/83
f 123/118/83 127/121/83 122/117/83
f 122/117/84 127/121/84 116/109/84
f 122/117/84 116/109/84 109/103/84
f 121/122/85 128/123/85 129/124/85
f 121/122/85 129/124/85 125/125/85
f 108/114/86 119/115/86 128/123/86
f 108/114/86 128/123/86 121/122/86
f 130/126/87 132/127/87 133/128/87
f 130/126/88 133/128/88 134/129/88
f 136/130/89 132/127/89 130/126/89
f 136/130/90 130/126/90 137/131/90
f 136/130/75 139/132/75 140/133/75
f 136/130/75 140/133/75 132/127/75
f 132/127/76 140/133/76 141/134/76
f 132/127/76 141/134/76 133/128/76
f 131/135/77 142/136/77 143/137/77
f 131/135/77 143/137/77 138/138/77
f 135/139/78 144/140/78 142/136/78
f 135/139/78 142/136/78 131/135/78
f 145/141/91 134/129/91 133/128/91
f 145/141/92 133/128/92 147/142/92
f 148/143/93 149/144/93 145/141/93
f 148/143/94 145/141/94 147/142/94
f 148/143/83 147/142/83 151/145/83
f 148/143/83 151/145/83 152/146/83
f 147/142/84 133/128/84 141/134/84
f 147/142/84 141/134/84 151/145/84
f 146/147/85 150/148/85 153/149/85
f 146/147/85 153/149/85 154/150/85
f 135/139/86 146/147/86 154/150/86
f 135/139/86 154/150/86 144/140/86
f 165/151/95 162/152/95 155/153/95
f 165/151/95 155/153/95 158/154/95
f 164/155/96 165/151/96 158/154/96
f 164/155/97 158/154/97 156/156/97
f 163/157/98 160/158/98 159/159/98
f 163/157/99 159/159/99 162/152/99
f 166/160/100 163/157/100 162/152/100
f 166/160/100 162/152/100 165/151/100
f 171/161/101 168/162/101 167/163/101
f 171/161/101 167/163/101 169/164/101
f 172/165/102 171/161/102 169/164/102
f 172/165/102 169/164/102 170/166/102
f 167/163/103 168/162/103 157/167/103
f 167/163/103 157/167/103 17/168/103
f 161/169/104 51/170/104 172/165/104
f 161/169/104 172/165/104 170/166/104
f 169/164/105 167/163/105 18/171/105
f 169/164/106 18/171/106 159/159/106
f 164/155/107 156/156/107 168/162/107
f 164/155/108 168/162/108 171/161/108
f 170/166/109 169/164/109 159/159/109
f 170/166/110 159/159/110 160/158/110
f 52/172/111 164/155/111 171/161/111
f 52/172/112 171/161/112 172/165/112
f 155/153/113 17/168/113 157/167/113
f 155/153/113 157/167/113 158/154/113
f 162/152/114 159/159/114 18/171/114
f 162/152/115 18/171/115 155/153/115
f 161/169/116 163/157/116 166/160/116
f 161/169/116 166/160/116 51/170/116
f 52/172/117 166/160/117 165/151/117
f 52/172/118 165/151/118 164/155/118
