<?xml version="1.0" encoding="UTF-8" standalone="no"?>
<!-- Created with Inkscape (http://www.inkscape.org/) -->

<svg
   xmlns:dc="http://purl.org/dc/elements/1.1/"
   xmlns:cc="http://creativecommons.org/ns#"
   xmlns:rdf="http://www.w3.org/1999/02/22-rdf-syntax-ns#"
   xmlns:svg="http://www.w3.org/2000/svg"
   xmlns="http://www.w3.org/2000/svg"
   xmlns:sodipodi="http://sodipodi.sourceforge.net/DTD/sodipodi-0.dtd"
   xmlns:inkscape="http://www.inkscape.org/namespaces/inkscape"
   width="16"
   height="16"
   viewBox="0 0 4.2333332 4.2333335"
   version="1.1"
   id="svg8"
   sodipodi:docname="BehaviorTreeNode.svg"
   inkscape:version="0.92.1 r15371">
  <defs
     id="defs2" />
  <sodipodi:namedview
     id="base"
     pagecolor="#ffffff"
     bordercolor="#666666"
     borderopacity="1.0"
     inkscape:pageopacity="0.0"
     inkscape:pageshadow="2"
     inkscape:zoom="16.000001"
     inkscape:cx="1.6107818"
     inkscape:cy="7.2402732"
     inkscape:document-units="mm"
     inkscape:current-layer="layer1"
     showgrid="true"
     units="px"
     showguides="false"
     inkscape:window-width="1366"
     inkscape:window-height="705"
     inkscape:window-x="-8"
     inkscape:window-y="-8"
     inkscape:window-maximized="1">
    <inkscape:grid
       type="xygrid"
       id="grid4600"
       empspacing="4" />
  </sodipodi:namedview>
  <metadata
     id="metadata5">
    <rdf:RDF>
      <cc:Work
         rdf:about="">
        <dc:format>image/svg+xml</dc:format>
        <dc:type
           rdf:resource="http://purl.org/dc/dcmitype/StillImage" />
        <dc:title />
      </cc:Work>
    </rdf:RDF>
  </metadata>
  <g
     inkscape:label="Capa 1"
     inkscape:groupmode="layer"
     id="layer1"
     transform="translate(0,-292.76665)">
    <path
       sodipodi:nodetypes="ccccccccc"
       inkscape:connector-curvature="0"
       id="path4144"
       d="m -292.1378,152.42412 v -1.32292 h 0.26459 c 0.53203,0 0.79673,-1.32292 1.32291,-1.32292 h 0.52917 c 0.53203,-0.006 0.80258,1.32292 1.32292,1.32292 h 0.26458 v 1.32292 z"
       style="fill:#e0e0e0;fill-opacity:0.99607843;fill-rule:evenodd;stroke:none;stroke-width:0.26458332px;stroke-linecap:butt;stroke-linejoin:miter;stroke-opacity:1" />
    <path
       style="opacity:0.98999999;fill:#ff7043;fill-opacity:1;fill-rule:nonzero;stroke:none;stroke-width:6.62942457;stroke-linejoin:round;stroke-miterlimit:4;stroke-dasharray:none;stroke-dashoffset:0;stroke-opacity:1"
       d="M 1 0 L 1 4 L 2 4 L 2 12 L 1 12 L 1 16 L 5 16 L 5 15 L 11 15 L 11 16 L 15 16 L 15 12 L 11 12 L 11 13 L 5 13 L 5 12 L 4 12 L 4 9 L 7 9 L 7 10 L 11 10 L 11 9 L 11 7 L 11 6 L 7 6 L 7 7 L 4 7 L 4 4 L 5 4 L 5 0 L 1 0 z "
       transform="matrix(0.26458333,0,0,0.26458333,0,292.76665)"
       id="rect4517-7-5-0-5" />
  </g>
</svg>
