<?xml version="1.0" encoding="UTF-8" standalone="no"?>
<!-- Created with Inkscape (http://www.inkscape.org/) -->

<svg
   xmlns:dc="http://purl.org/dc/elements/1.1/"
   xmlns:cc="http://creativecommons.org/ns#"
   xmlns:rdf="http://www.w3.org/1999/02/22-rdf-syntax-ns#"
   xmlns:svg="http://www.w3.org/2000/svg"
   xmlns="http://www.w3.org/2000/svg"
   xmlns:sodipodi="http://sodipodi.sourceforge.net/DTD/sodipodi-0.dtd"
   xmlns:inkscape="http://www.inkscape.org/namespaces/inkscape"
   width="16"
   height="16"
   viewBox="0 0 4.2333332 4.2333335"
   version="1.1"
   id="svg8"
   sodipodi:docname="Blackboard.svg"
   inkscape:version="0.92.1 r15371">
  <defs
     id="defs2" />
  <sodipodi:namedview
     id="base"
     pagecolor="#ffffff"
     bordercolor="#666666"
     borderopacity="1.0"
     inkscape:pageopacity="0.0"
     inkscape:pageshadow="2"
     inkscape:zoom="22.627418"
     inkscape:cx="4.3441486"
     inkscape:cy="6.5407643"
     inkscape:document-units="mm"
     inkscape:current-layer="layer1"
     showgrid="true"
     units="px"
     showguides="false"
     inkscape:window-width="1366"
     inkscape:window-height="705"
     inkscape:window-x="-8"
     inkscape:window-y="-8"
     inkscape:window-maximized="1">
    <inkscape:grid
       type="xygrid"
       id="grid4600"
       empspacing="4" />
  </sodipodi:namedview>
  <metadata
     id="metadata5">
    <rdf:RDF>
      <cc:Work
         rdf:about="">
        <dc:format>image/svg+xml</dc:format>
        <dc:type
           rdf:resource="http://purl.org/dc/dcmitype/StillImage" />
        <dc:title />
      </cc:Work>
    </rdf:RDF>
  </metadata>
  <g
     inkscape:label="Capa 1"
     inkscape:groupmode="layer"
     id="layer1"
     transform="translate(0,-292.76665)">
    <path
       sodipodi:nodetypes="ccccccccc"
       inkscape:connector-curvature="0"
       id="path4144"
       d="m -292.1378,152.42412 v -1.32292 h 0.26459 c 0.53203,0 0.79673,-1.32292 1.32291,-1.32292 h 0.52917 c 0.53203,-0.006 0.80258,1.32292 1.32292,1.32292 h 0.26458 v 1.32292 z"
       style="fill:#e0e0e0;fill-opacity:0.99607843;fill-rule:evenodd;stroke:none;stroke-width:0.26458332px;stroke-linecap:butt;stroke-linejoin:miter;stroke-opacity:1" />
    <path
       style="opacity:0.98999999;fill:#ff7043;fill-opacity:1;fill-rule:nonzero;stroke:none;stroke-width:9.37547016;stroke-linejoin:round;stroke-miterlimit:4;stroke-dasharray:none;stroke-dashoffset:0;stroke-opacity:1"
       d="M 0 1 L 0 3 L 16 3 L 16 1 L 0 1 z M 0 5 L 0 7 L 3 7 L 3 5 L 0 5 z M 4 5 L 4 7 L 7 7 L 7 5 L 4 5 z M 9 5 L 9 7 L 12 7 L 12 5 L 9 5 z M 13 5 L 13 7 L 16 7 L 16 5 L 13 5 z M 0 9 L 0 11 L 3 11 L 3 9 L 0 9 z M 4 9 L 4 11 L 7 11 L 7 9 L 4 9 z M 9 9 L 9 11 L 12 11 L 12 9 L 9 9 z M 13 9 L 13 11 L 16 11 L 16 9 L 13 9 z M 0 13 L 0 15 L 16 15 L 16 13 L 0 13 z "
       transform="matrix(0.26458333,0,0,0.26458333,0,292.76665)"
       id="rect4517-7-5-0-5-1-4" />
  </g>
</svg>
